<?xml version='1.0' encoding='utf-8'?>
<svg xmlns="http://www.w3.org/2000/svg" version="1.1"
     viewBox="98.100 89.100 100.800 85.500" width="1024" height="1024">
  <defs>
    <linearGradient id="affineGrad" gradientUnits="userSpaceOnUse"
                    x1="98.100" y1="89.100" x2="98.100" y2="174.600">
      <stop offset="0%" stop-color="#2EC3E8"/>
      <stop offset="55%" stop-color="#4B79C1"/>
      <stop offset="100%" stop-color="#7A35B3"/>
    </linearGradient>

    <clipPath id="logoClip" clipPathUnits="userSpaceOnUse">
      <path d="M130.62583,156.15674c5.21206,0.20508 11.63188,0.00586 16.9689,0.00293l33.89648,-0.01465c2.44482,4.94971 4.90576,10.56738 7.17188,15.61523c-1.7373,0.05127 -3.63281,0.02344 -5.38184,0.0293l-3.83496,-8.54883l-1.06055,-2.35693c-0.68848,0.07471 -1.14551,0.0249 -1.82959,-0.01758c1.06348,2.69385 3.65918,8.29395 4.96289,10.92627l-5.51221,0.02051l-4.7915,-10.71533l-42.92344,0.03076z"/>
      <path d="M140.97583,100.5564c0.9479,1.93447 1.86079,3.88579 2.73838,5.85308c-1.63945,2.95972 -4.00283,8.74277 -5.47339,12.00732l-9.72759,21.4147c-1.08809,2.41392 -3.43345,8.01226 -4.60811,10.04399c-0.17578,0.63721 -2.47075,5.55762 -2.83784,6.36914l-6.99038,15.50977c-1.81641,-0.00146 -3.63281,0.01611 -5.44893,0.0542c2.67334,-6.20801 5.71436,-12.31934 8.38667,-18.5376c0.70166,-1.63184 1.48638,-3.4292 2.30024,-5.00391c6.9041,-15.92358 14.68184,-31.78374 21.66094,-47.71069z"/>
      <path d="M119.31489,148.26709c0.86367,-0.74268 0.81533,-1.62451 1.37168,-2.38945c1.25977,-1.73262 1.92349,-6.83423 4.18447,-7.01543c0.72598,-0.0583 2.97715,0.6438 2.97085,1.65352c-0.26528,1.54805 -4.14932,8.22598 -3.93677,9.35977c-0.17578,0.63721 -2.47075,5.55762 -2.83784,6.36914l-6.99038,15.50977c-1.81641,-0.00146 -3.63281,0.01611 -5.44893,0.0542c2.67334,-6.20801 5.71436,-12.31934 8.38667,-18.5376c0.70166,-1.63184 1.48638,-3.4292 2.30024,-5.00391z"/>
      <path d="M133.53179,149.75244c17.30757,-0.24463 34.94136,0.12598 52.32905,-0.04102c2.75391,5.62939 5.2002,11.44043 7.87939,17.10645c0.77637,1.63916 1.54102,3.31494 2.24707,4.9834l-1.72119,0.01465l-3.68115,-0.00586c-0.42627,-0.80566 -0.81885,-1.61572 -1.18506,-2.44922c-2.17383,-4.94971 -4.58936,-9.81885 -6.65479,-14.8125c-17.01123,-0.08643 -34.32568,0.23438 -51.29575,0.01318c0.65332,-1.62012 1.3478,-3.22412 2.08242,-4.80908z"/>
      <path d="M154.01074,92.25864l5.39502,0.02271c1.30078,2.63687 2.57227,5.70923 3.82031,8.41436c1.11768,2.42461 2.63672,5.43237 3.58154,7.8668c1.89404,3.55986 4.02686,8.5812 5.76416,12.34497l9.40869,20.23198c-1.7417,0.03735 -3.86133,0.09111 -5.60156,-0.02402c-4.56445,-10.47187 -9.78369,-20.90303 -14.30713,-31.28423c-0.87598,-1.60781 -2.03906,-4.33447 -2.84766,-6.07471c-1.7915,-3.80771 -3.53027,-7.64077 -5.21338,-11.49785z"/>
      <path d="M154.01074,92.25864l5.39502,0.02271c1.30078,2.63687 2.57227,5.70923 3.82031,8.41436c1.11768,2.42461 2.63672,5.43237 3.58154,7.8668l-0.12598,0.21431c-1.03711,-1.77656 -1.81201,-4.34224 -2.90332,-6.19526c-0.59326,-1.00796 -0.81592,-2.29702 -1.56885,-3.35347l-0.19043,0.34702c-0.49805,0.01069 -0.31348,0.01714 -0.81299,-0.19746c-0.37646,0.17021 -0.51562,0.33428 -0.79834,0.16714c-1.17187,-0.69214 -1.83691,-1.31396 -3.22852,-1.54849l-0.17871,0.05625c0.14941,1.64795 5.47412,10.95601 5.07129,11.77866c-0.87598,-1.60781 -2.03906,-4.33447 -2.84766,-6.07471c-1.7915,-3.80771 -3.53027,-7.64077 -5.21338,-11.49785z"/>
      <path d="M139.50967,92.26245l5.29966,0.03618c1.03608,2.06455 2.30933,4.88071 3.22192,7.00972c5.82715,12.17432 11.26318,24.57041 16.99072,36.79307c0.77783,1.65894 1.58496,3.34585 2.32617,5.01929c-1.79297,0.01304 -3.58594,0.00469 -5.37891,-0.0249c-4.18799,-8.59512 -8.42285,-18.14766 -12.36621,-26.86143l-3.80947,-8.2645c-0.57041,-1.24072 -1.44917,-3.0334 -1.89683,-4.26855c-0.66489,-0.90396 -3.75088,-8.00361 -4.38706,-9.43887z"/>
      <path d="M139.50967,92.26245l5.29966,0.03618c1.03608,2.06455 2.30933,4.88071 3.22192,7.00972c-0.00732,0.76831 -0.53906,2.90449 -1.22314,3.30571c-1.25522,-0.17271 -1.2561,-1.15166 -2.91138,-0.91274c-0.66489,-0.90396 -3.75088,-8.00361 -4.38706,-9.43887z"/>
      <path d="M146.76563,92.24766c1.78857,-0.0167 3.57715,-0.00527 5.36572,0.03472c2.41992,5.76372 5.34814,11.37817 7.75635,17.05049c4.94092,10.13423 10.02393,21.49585 14.64111,31.83457c-1.73145,-0.02065 -3.62842,-0.00674 -5.34521,-0.07456c-3.31055,-7.34238 -6.6665,-14.66396 -10.06934,-21.96401c-0.65625,-1.42324 -3.375,-6.83306 -3.64307,-8.02163c-0.73682,-1.28408 -1.45752,-2.99253 -2.07422,-4.36011c-2.17236,-4.81802 -4.5791,-9.63486 -6.63135,-14.49946z"/>
      <path d="M146.76563,92.24766c1.78857,-0.0167 3.57715,-0.00527 5.36572,0.03472c2.41992,5.76372 5.34814,11.37817 7.75635,17.05049l-0.19629,0.07573c-0.47021,-0.70415 -1.02539,-2.18496 -1.41504,-3.02563c-0.87451,-1.88452 -1.74023,-3.77534 -2.62646,-5.65576c-0.71777,0.10151 -2.19141,0.4749 -2.70117,0.27187c-0.46436,-0.39741 -0.47168,-0.51753 -0.72217,-1.10171l-0.15088,-0.08218c-0.37939,0.2105 -1.13232,0.80039 -1.04297,1.10376c0.43213,1.47524 4.6333,9.24917 4.43848,10.18828c-0.73682,-1.28408 -1.45752,-2.99253 -2.07422,-4.36011c-2.17236,-4.81802 -4.5791,-9.63486 -6.63135,-14.49946z"/>
      <path d="M136.48271,143.1772l46.51436,0.0457c0.74854,1.55947 1.45605,3.26733 2.14746,4.86255l-1.85596,0.01025l-48.97881,-0.01025c0.71484,-1.63989 1.43906,-3.27627 2.17295,-4.90825z"/>
      <path d="M137.29878,92.42578c0.88081,1.96333 1.79312,4.11167 2.71685,6.03853c-3.23071,7.74082 -7.27808,16.04561 -10.74067,23.74014c-1.56987,3.50962 -3.16143,7.00942 -4.77437,10.49956c-0.62681,1.37607 -1.83882,4.25508 -2.55073,5.47603c-0.23057,0.02666 -0.14912,0.03032 -0.38276,0.19951c-0.14414,0.46611 -0.09873,0.55063 -0.42261,0.84902c-1.34912,-0.83057 -1.56108,-0.19775 -2.75112,-0.60308c-1.42339,-0.48486 -0.85942,0.25166 -1.56533,0.17021c0.07778,-0.96899 0.6873,-1.49033 0.7021,-2.49155c0.74619,-2.20151 3.29927,-7.35381 4.36318,-9.67471l9.84287,-21.68672l3.5937,-7.93169c0.56924,-1.26855 1.53735,-3.30967 1.9689,-4.58525z"/>
      <path d="M131.62119,137.16416c1.68677,-1.59287 0.44883,-2.93188 3.03296,-3.07764c5.38081,-0.30366 1.30444,3.15029 1.4981,4.95073c-0.13945,0.48794 -1.09629,2.52319 -1.3481,3.07603l-2.86113,6.26807l-10.69336,23.39209c-1.67227,0.06592 -3.68203,0.01465 -5.38066,0.01172c0.97954,-2.45947 2.47632,-5.51514 3.58872,-7.94238l5.18774,-11.44482l4.39512,-9.66401c0.75937,-1.67578 1.7291,-3.98555 2.58062,-5.56978z"/>
      <path d="M117.53013,136.30415c-0.01479,1.00122 -0.62432,1.52256 -0.7021,2.49155c0.70591,0.08145 0.14194,-0.65508 1.56533,-0.17021c1.19004,0.40532 1.402,-0.22749 2.75112,0.60308c0.32388,-0.29839 0.27847,-0.38291 0.42261,-0.84902c0.23364,-0.16919 0.1522,-0.17285 0.38276,-0.19951c-0.23599,0.7396 -1.16616,2.69707 -1.50835,3.44326l-2.91006,6.36401l-10.7231,23.75391c-1.80571,0.08203 -3.7084,0.04541 -5.52275,0.03955c4.18301,-9.54639 8.80635,-18.96533 13.01821,-28.50718c1.00107,-2.26772 2.08037,-4.78213 3.22632,-6.96943z"/>
      <path d="M144.60439,108.24697c0.9397,2.01445 1.85801,4.03901 2.75449,6.0731c-2.48057,5.59365 -4.99614,11.17178 -7.54629,16.73423c-0.9457,2.06924 -2.6354,6.16904 -3.66035,7.98296c-0.19365,-1.80044 3.88271,-5.25439 -1.4981,-4.95073c-2.58413,0.14575 -1.34619,1.48477 -3.03296,3.07764c2.75024,-6.76567 6.37661,-13.75811 9.28345,-20.47939c1.00972,-2.33481 2.93247,-6.14561 3.69976,-8.43779z"/>
    </clipPath>
  </defs>

  <!-- Scale down around the center of the viewBox for extra padding -->
  <g transform="translate(148.5 131.85) scale(0.85) translate(-148.5 -131.85)">
    <rect x="98.100" y="89.100" width="100.800" height="85.500"
          fill="url(#affineGrad)" clip-path="url(#logoClip)"/>
  </g>
</svg>
